<svg xmlns="http://www.w3.org/2000/svg" viewBox="0 0 64 64" width="256" height="256"><path fill="#ea4335" d="M31.141 12.139l-5.785 7.071a4.975 4.975 0 011.807.949l5.517-6.744c.051.027.106.047.158.072a4.97 4.97 0 01-1.697-1.348zM44.644 19.211l-5.785-7.071a5.006 5.006 0 01-1.697 1.349c.052-.025.106-.045.158-.072l5.517 6.744a4.946 4.946 0 011.807-.95zM33.644 34.211l-5.785-7.071a5.006 5.006 0 01-1.697 1.349c.052-.025.106-.045.158-.072l5.517 6.744a4.946 4.946 0 011.807-.95zM20.141 27.139l-5.785 7.071a4.975 4.975 0 011.807.949l5.517-6.744c.051.027.106.047.158.072a4.97 4.97 0 01-1.697-1.348zM31.141 42.139l-5.785 7.071a4.975 4.975 0 011.807.949l5.517-6.744c.051.027.106.047.158.072a4.97 4.97 0 01-1.697-1.348zM44.644 49.211l-5.785-7.071a5.006 5.006 0 01-1.697 1.349c.052-.025.106-.045.158-.072l5.517 6.744a4.946 4.946 0 011.807-.95z" class="color2B3660 svgShape"></path><circle cx="35" cy="9" r="5" fill="#ea4335" class="color2B3660 svgShape"></circle><circle cx="24" cy="24" r="5" fill="#34a853" class="color3F4F8C svgShape"></circle><circle cx="46" cy="24" r="5" fill="#34a853" class="color3F4F8C svgShape"></circle><circle cx="13" cy="39" r="5" fill="#4285f4" class="color8BA0F0 svgShape"></circle><circle cx="35" cy="39" r="5" fill="#4285f4" class="color8BA0F0 svgShape"></circle><circle cx="24" cy="54" r="5" fill="#fbbc05" class="colorABBCFF svgShape"></circle><circle cx="46" cy="54" r="5" fill="#fbbc05" class="colorABBCFF svgShape"></circle></svg>